{
  "accessors": [
    {
      "bufferView": 2,
      "componentType": 5126,
      "count": 8716,
      "max": [
        2.3274922370910645,
        9.40771484375,
        7.1381897926330566
      ],
      "min": [
        -2.3899469375610352,
        2.394218921661377,
        5.9204502105712891
      ],
      "type": "VEC3"
    },
    {
      "bufferView": 2,
      "byteOffset": 104592,
      "componentType": 5126,
      "count": 8716,
      "max": [
        0.99994492530822754,
        0.99999964237213135,
        0.99998462200164795
      ],
      "min": [
        -0.99992996454238892,
        -0.99986839294433594,
        -0.99997895956039429
      ],
      "type": "VEC3"
    },
    {
      "bufferView": 3,
      "componentType": 5126,
      "count": 8716,
      "max": [
        0.99073445796966553,
        0.98847442865371704,
        0.99999994039535522,
        1
      ],
      "min": [
        -0.9926680326461792,
        -0.99994486570358276,
        -0.99992662668228149,
        -1
      ],
      "type": "VEC4"
    },
    {
      "bufferView": 1,
      "componentType": 5126,
      "count": 8716,
      "max": [
        0.99900001287460327,
        0.99452447891235352
      ],
      "min": [
        0.0010000000474974513,
        0.0010000000474974513
      ],
      "type": "VEC2"
    },
    {
      "bufferView": 0,
      "componentType": 5125,
      "count": 22248,
      "max": [
        8715
      ],
      "min": [
        0
      ],
      "type": "SCALAR"
    },
    {
      "bufferView": 2,
      "byteOffset": 209184,
      "componentType": 5126,
      "count": 9040,
      "max": [
        2.3668155670166016,
        9.4470853805541992,
        7.1774110794067383
      ],
      "min": [
        -2.4292304515838623,
        2.3555631637573242,
        5.8824634552001953
      ],
      "type": "VEC3"
    },
    {
      "bufferView": 2,
      "byteOffset": 317664,
      "componentType": 5126,
      "count": 9040,
      "max": [
        0.99992996454238892,
        0.99986839294433594,
        0.99997895956039429
      ],
      "min": [
        -0.99994492530822754,
        -0.99999964237213135,
        -0.99998462200164795
      ],
      "type": "VEC3"
    },
    {
      "bufferView": 3,
      "byteOffset": 139456,
      "componentType": 5126,
      "count": 9040,
      "max": [
        0.99180805683135986,
        0.98855328559875488,
        0.99999773502349854,
        1
      ],
      "min": [
        -0.9966006875038147,
        -0.99997532367706299,
        -0.99995625019073486,
        -1
      ],
      "type": "VEC4"
    },
    {
      "bufferView": 1,
      "byteOffset": 69728,
      "componentType": 5126,
      "count": 9040,
      "max": [
        0.99900001287460327,
        0.99452447891235352
      ],
      "min": [
        0.0010000000474974513,
        0.0010000000474974513
      ],
      "type": "VEC2"
    },
    {
      "bufferView": 0,
      "byteOffset": 88992,
      "componentType": 5125,
      "count": 22728,
      "max": [
        9039
      ],
      "min": [
        0
      ],
      "type": "SCALAR"
    },
    {
      "bufferView": 2,
      "byteOffset": 426144,
      "componentType": 5126,
      "count": 128,
      "max": [
        30.931243896484375,
        37.394096374511719,
        2.1130720142537029e-06
      ],
      "min": [
        -28.190853118896484,
        -43.788265228271484,
        -24.615190505981445
      ],
      "type": "VEC3"
    },
    {
      "bufferView": 2,
      "byteOffset": 427680,
      "componentType": 5126,
      "count": 128,
      "max": [
        1,
        1,
        1
      ],
      "min": [
        -1,
        -1,
        -1
      ],
      "type": "VEC3"
    },
    {
      "bufferView": 3,
      "byteOffset": 284096,
      "componentType": 5126,
      "count": 128,
      "max": [
        0.99999552965164185,
        0.1587415337562561,
        0.99999642372131348,
        1
      ],
      "min": [
        0,
        -0.17751508951187134,
        -0.99999642372131348,
        -1
      ],
      "type": "VEC4"
    },
    {
      "bufferView": 1,
      "byteOffset": 142048,
      "componentType": 5126,
      "count": 128,
      "max": [
        0.83245348930358887,
        0.99865430593490601
      ],
      "min": [
        0.0014086822047829628,
        0.0013460670597851276
      ],
      "type": "VEC2"
    },
    {
      "bufferView": 0,
      "byteOffset": 179904,
      "componentType": 5125,
      "count": 180,
      "max": [
        127
      ],
      "min": [
        0
      ],
      "type": "SCALAR"
    }
  ],
  "asset": {
    "extras": {
      "author": "PaulinDelgadillo (https://sketchfab.com/PaulinDELRawr)",
      "license": "CC-BY-4.0 (http://creativecommons.org/licenses/by/4.0/)",
      "source": "https://sketchfab.com/3d-models/bold-brash-fuerte-hermosura-by-squidward-q-016d44db40ae41bd8f6358801a2677d6",
      "title": "Bold & Brash / Fuerte Hermosura by Squidward Q."
    },
    "generator": "Sketchfab-6.71.0",
    "version": "2.0"
  },
  "bufferViews": [
    {
      "buffer": 0,
      "byteLength": 180624,
      "byteOffset": 0,
      "name": "floatBufferViews",
      "target": 34963
    },
    {
      "buffer": 0,
      "byteLength": 143072,
      "byteOffset": 180624,
      "byteStride": 8,
      "name": "floatBufferViews",
      "target": 34962
    },
    {
      "buffer": 0,
      "byteLength": 429216,
      "byteOffset": 323696,
      "byteStride": 12,
      "name": "floatBufferViews",
      "target": 34962
    },
    {
      "buffer": 0,
      "byteLength": 286144,
      "byteOffset": 752912,
      "byteStride": 16,
      "name": "floatBufferViews",
      "target": 34962
    }
  ],
  "buffers": [
    {
      "byteLength": 1039056,
      "uri": "scene.bin"
    }
  ],
  "extensionsUsed": [
    "KHR_materials_unlit"
  ],
  "images": [
    {
      "uri": "textures/Plane001__0_baseColor.png"
    },
    {
      "uri": "textures/MAT_FuerteHermosura_baseColor.png"
    }
  ],
  "materials": [
    {
      "doubleSided": true,
      "extensions": {
        "KHR_materials_unlit": {}
      },
      "name": "Plane001__0",
      "pbrMetallicRoughness": {
        "baseColorFactor": [
          1,
          1,
          1,
          1
        ],
        "baseColorTexture": {
          "index": 0,
          "texCoord": 0
        },
        "metallicFactor": 0,
        "roughnessFactor": 1
      }
    },
    {
      "doubleSided": true,
      "emissiveFactor": [
        0,
        0,
        0
      ],
      "extensions": {
        "KHR_materials_unlit": {}
      },
      "name": "MAT_FuerteHermosura",
      "pbrMetallicRoughness": {
        "baseColorFactor": [
          1,
          1,
          1,
          1
        ],
        "baseColorTexture": {
          "index": 1,
          "texCoord": 0
        },
        "metallicFactor": 0,
        "roughnessFactor": 1
      }
    },
    {
      "doubleSided": false,
      "emissiveFactor": [
        0,
        0,
        0
      ],
      "extensions": {
        "KHR_materials_unlit": {}
      },
      "name": "MAT_Outline",
      "pbrMetallicRoughness": {
        "baseColorFactor": [
          0,
          0.07058819999999999,
          0.028649447002744986,
          1
        ],
        "metallicFactor": 0,
        "roughnessFactor": 1
      }
    }
  ],
  "meshes": [
    {
      "name": "G_FuerteH_MAT_FuerteHermosura_0",
      "primitives": [
        {
          "attributes": {
            "NORMAL": 1,
            "POSITION": 0,
            "TANGENT": 2,
            "TEXCOORD_0": 3
          },
          "indices": 4,
          "material": 1,
          "mode": 4
        }
      ]
    },
    {
      "name": "G_Outline_MAT_Outline_0",
      "primitives": [
        {
          "attributes": {
            "NORMAL": 6,
            "POSITION": 5,
            "TANGENT": 7,
            "TEXCOORD_0": 8
          },
          "indices": 9,
          "material": 2,
          "mode": 4
        }
      ]
    },
    {
      "name": "Plane001__0",
      "primitives": [
        {
          "attributes": {
            "NORMAL": 11,
            "POSITION": 10,
            "TANGENT": 12,
            "TEXCOORD_0": 13
          },
          "indices": 14,
          "material": 0,
          "mode": 4
        }
      ]
    }
  ],
  "nodes": [
    {
      "children": [
        1
      ],
      "name": "RootNode (gltf orientation matrix)",
      "rotation": [
        -0.70710678118654746,
        -0,
        -0,
        0.70710678118654757
      ]
    },
    {
      "children": [
        2
      ],
      "name": "RootNode (model correction matrix)"
    },
    {
      "children": [
        3
      ],
      "matrix": [
        1,
        0,
        0,
        0,
        0,
        0,
        1,
        0,
        0,
        -1,
        0,
        0,
        0,
        0,
        0,
        1
      ],
      "name": "859e829cfd584875baa02edfa237e1dd.fbx"
    },
    {
      "children": [
        4,
        6,
        8
      ],
      "name": "RootNode"
    },
    {
      "children": [
        5
      ],
      "matrix": [
        8.3012247085571289,
        0,
        0,
        0,
        0,
        8.3012247085570188,
        1.35244124671855e-06,
        0,
        0,
        -1.35244124671855e-06,
        8.3012247085570188,
        0,
        0.069662421941757202,
        -12.414691925048828,
        -14.571036338806152,
        1
      ],
      "name": "G_FuerteH"
    },
    {
      "mesh": 0,
      "name": "G_FuerteH_MAT_FuerteHermosura_0"
    },
    {
      "children": [
        7
      ],
      "matrix": [
        8.3012247085571289,
        0,
        0,
        0,
        0,
        8.3012247085570188,
        1.35244124671855e-06,
        0,
        0,
        -1.35244124671855e-06,
        8.3012247085570188,
        0,
        0.069662421941757202,
        -12.414691925048828,
        -14.571036338806152,
        1
      ],
      "name": "G_Outline"
    },
    {
      "mesh": 1,
      "name": "G_Outline_MAT_Outline_0"
    },
    {
      "children": [
        9
      ],
      "matrix": [
        1,
        0,
        0,
        0,
        0,
        0.99999999999998668,
        1.6292068494294582e-07,
        0,
        0,
        -1.6292068494294582e-07,
        0.99999999999998668,
        0,
        -0.42765903472900391,
        41.65667724609375,
        27.719245910644531,
        1
      ],
      "name": "Plane001"
    },
    {
      "mesh": 2,
      "name": "Plane001__0"
    }
  ],
  "samplers": [
    {
      "magFilter": 9729,
      "minFilter": 9987,
      "wrapS": 10497,
      "wrapT": 10497
    }
  ],
  "scene": 0,
  "scenes": [
    {
      "name": "OSG_Scene",
      "nodes": [
        0
      ]
    }
  ],
  "textures": [
    {
      "sampler": 0,
      "source": 0
    },
    {
      "sampler": 0,
      "source": 1
    }
  ]
}

